# xmcd CD database file
#
# Track frame offsets:
#	150
#	20275
#	35653
#	54746
#	80001
#	90350
#	120304
#	139558
#	158811
#	182037
#	198232
#
# Disc length: 2826 seconds
#
# Revision: 2
# Processed by: cddbd v1.4PL0 Copyright (c) Steve Scherf et al.
# Submitted via: CDex 1.50beta10
#
DISCID=840b080b
DTITLE=Ασημος Νικόλας - Στο Φαλιμέντο Του Κόσμου
DYEAR=1900
DGENRE=Έντεχνο
TTITLE0=Ο ’τριχος Πίθηκος
TTITLE1=Πας Φιρί Φιρί
TTITLE2=Ολοι Δηλώνετε Ιδιότητα
TTITLE3=Το blues Του Κουδουνιστή
TTITLE4=Στο Φαλιμέντο Του Κόσμου
TTITLE5=Πουσουρούμ
TTITLE6=Μάρα
TTITLE7=Μπαταρία
TTITLE8=Θα Σου Κλέψω Το Σακκάκι
TTITLE9=Ο Ρωμιός
TTITLE10=Ο Μηχανισμός
EXTD=
EXTT0=
EXTT1=
EXTT2=
EXTT3=
EXTT4=
EXTT5=
EXTT6=
EXTT7=
EXTT8=
EXTT9=
EXTT10=
PLAYORDER=
